<?xml version="1.0" standalone="no"?>
<!DOCTYPE svg PUBLIC "-//W3C//DTD SVG 20010904//EN"
 "http://www.w3.org/TR/2001/REC-SVG-20010904/DTD/svg10.dtd">
<svg version="1.0" xmlns="http://www.w3.org/2000/svg"
 width="150.000000pt" height="150.000000pt" viewBox="0 0 150.000000 150.000000"
 preserveAspectRatio="xMidYMid meet">
<metadata>
Created by potrace 1.11, written by Peter Selinger 2001-2013
</metadata>
<g transform="translate(0.000000,150.000000) scale(0.100000,-0.100000)"
fill="#000000" stroke="none">
<path d="M0 750 l0 -750 750 0 750 0 0 750 0 750 -750 0 -750 0 0 -750z m900
508 c0 -13 -7 -66 -15 -118 -22 -146 -30 -133 78 -126 50 4 98 3 105 -2 11 -7
11 -22 2 -76 -14 -75 -8 -71 -125 -81 -99 -8 -102 -13 -126 -186 -11 -79 -17
-160 -14 -179 18 -100 137 -121 225 -40 46 43 61 48 79 26 22 -26 -26 -121
-95 -188 -72 -69 -191 -101 -307 -84 -96 15 -176 101 -192 206 -4 25 -2 82 5
125 6 44 15 114 20 155 6 41 13 88 16 103 l6 29 -85 -7 c-51 -4 -87 -3 -90 2
-13 20 16 87 56 130 44 49 200 180 326 275 84 63 131 76 131 36z"/>
</g>
</svg>
