<?xml version="1.0" encoding="UTF-8"?>
<svg width="19px" height="19px" viewBox="0 0 19 19" version="1.1" xmlns="http://www.w3.org/2000/svg" xmlns:xlink="http://www.w3.org/1999/xlink">
    <!-- Generator: sketchtool 54.1 (76490) - https://sketchapp.com -->
    <title>36A71395-13D2-4768-BF6D-3112DFEE7FF6</title>
    <desc>Created with sketchtool.</desc>
    <g id="Page-1" stroke="none" stroke-width="1" fill="none" fill-rule="evenodd">
        <g id="Telepizza_API_V2" transform="translate(-1181.000000, -39.000000)" fill="#FFFFFF">
            <path d="M1194.57919,50.9496855 L1200,56.3813608 L1198.38136,58 L1192.94969,52.5791881 L1192.94969,51.7209834 L1192.65638,51.4168096 C1191.41795,52.481418 1189.81018,53.1223556 1188.06118,53.1223556 C1184.16123,53.1223556 1181,49.9611206 1181,46.0611778 C1181,42.161235 1184.16123,39 1188.06118,39 C1191.96112,39 1195.12236,42.161235 1195.12236,46.0611778 C1195.12236,47.8101772 1194.48142,49.4179531 1193.41681,50.6563751 L1193.72098,50.9496855 L1194.57919,50.9496855 Z M1188.06118,50.9496855 C1190.76615,50.9496855 1192.94969,48.7661521 1192.94969,46.0611778 C1192.94969,43.3562035 1190.76615,41.1726701 1188.06118,41.1726701 C1185.3562,41.1726701 1183.17267,43.3562035 1183.17267,46.0611778 C1183.17267,48.7661521 1185.3562,50.9496855 1188.06118,50.9496855 Z" id="Combined-Shape"></path>
        </g>
    </g>
</svg>